# xmcd CD database file
#
# Track frame offsets:
#	150
#	19902
#	51154
#	70396
#	91790
#	103825
#	143476
#	175449
#	192816
#	204301
#	215862
#	233692
#
# Disc length: 3329 seconds
#
# Revision: 3
# Processed by: cddbd v1.5.2PL0 Copyright (c) Steve Scherf et al.
# Submitted via: CDex 1.70beta2
#
DISCID=aa0cff0c
DTITLE=ZED-U - night time on the middle passage
DYEAR=2009
DGENRE=Jazz
TTITLE0=The Forest
TTITLE1=Roki
TTITLE2=Traveller
TTITLE3=Showroom Dummies
TTITLE4=Surman Part 1
TTITLE5=Breaking the News
TTITLE6=Chief
TTITLE7=Phone Tap
TTITLE8=Tikya USA
TTITLE9=Surman Part 2
TTITLE10=Detrekoys Decoy
TTITLE11=Middle Passage
EXTD=YEAR: 2009
EXTT0=
EXTT1=
EXTT2=
EXTT3=
EXTT4=
EXTT5=
EXTT6=
EXTT7=
EXTT8=
EXTT9=
EXTT10=
EXTT11=
PLAYORDER=
